<svg width="375" height="812" viewBox="0 0 375 812" fill="none" xmlns="http://www.w3.org/2000/svg">
<g clip-path="url(#clip0)">
<rect width="375" height="812" fill="white"/>
<rect width="375" height="318" fill="url(#paint0_linear)"/>
<path d="M343 318.5C343 393.335 282.335 454 207.5 454C132.665 454 72 393.335 72 318.5C72 243.665 132.665 183 207.5 183C282.335 183 343 243.665 343 318.5Z" fill="#FFF175"/>
<rect y="318" width="375" height="494" fill="url(#paint1_linear)"/>
<path d="M39 333H77L161.5 337.5L101.5 339L56.5 335.5H10L39 333Z" fill="#FFD954"/>
<path d="M84.2072 497H246.79L331 514.931L228.448 523L53 514.931L5 500.586L84.2072 497Z" fill="#FFD954"/>
<path d="M220.127 285.956L270 318H-1V257.392L17.6025 253.993L33.3229 237H63.7156L101.969 255.692L220.127 285.956Z" fill="#56E0C7"/>
<path d="M220.127 285.956L270 318H-1L56 277.5L76.5 267.5L75.5 253L63.7156 237L101.969 255.692L220.127 285.956Z" fill="#6BF2DA"/>
<path d="M-55.0633 293.811L-197 318.5H397.5L388 301.5L272.5 249L190.5 273L99 293.811H-55.0633Z" fill="#118E78"/>
<path d="M291.5 283.5C289.5 283.1 278.167 260.333 272.5 249L387 298L405.5 318.5H327L325 315C326 312.5 327.8 307.5 327 307.5C326.2 307.5 324.333 299.5 323.5 295.5C313.667 291.667 293.5 283.9 291.5 283.5Z" fill="#21B398"/>
<path d="M168.668 307.211C168.668 307.211 198.424 316.849 200 318H-1V279.589L16.1441 281.747L45.1118 277L59.3 281.747L97.7265 290.811L168.668 307.211Z" fill="#2EC0A6"/>
<path d="M179 504.5L168.5 407L385 379.5L431.5 396.5L411.5 834.5H61.4999C55.4999 825.833 47.1 805.1 61.4999 791.5C79.4999 774.5 69.4999 747.5 61.4999 738C55.0999 730.4 111.833 711.167 141 702.5L168.5 600L160 519L179 504.5Z" fill="#9F5219"/>
<path d="M167.5 406C169.333 397.167 215.7 379.8 386.5 381L418.5 427L386.5 446.5L287.5 434.5L167.5 406Z" fill="#FFD954"/>
<path d="M185 697.5L197 802.5L213.5 840.5H327L390 802.5L371 714L347 689L333 603.5L268.5 569L213.5 603.5L185 697.5Z" fill="#91450E"/>
<path d="M280.5 689L268.5 811L353.5 825.5L390 802.5L371 714L347 689L333 603.5L268.5 569L286.5 607L280.5 689Z" fill="#684510"/>
<path d="M286 416.5L291.047 423H294.767L307 419.694L296.5 421.5L303.5 414.5C301.64 416.231 296.872 417.244 296.5 418C296.128 418.756 296.345 412.065 296.5 407.5L294 415.5L286 409.5L291.047 419.694L286 416.5Z" fill="#338426"/>
<path d="M286 416.5L292 422.5H296L307 419.5L296.5 421L303 411.5C301 413.333 296.9 417.2 296.5 418C296.1 418.8 296.333 409.333 296.5 404.5L293.5 414.5L285.5 406L292 419L286 416.5Z" fill="#5BFF41"/>
<path d="M44.7474 410.692V423H48.8792V410.692C49.9121 409.495 52.2879 405.564 53.5274 399.409C55.0768 391.717 52.4944 389.153 50.4286 399.409C48.7759 407.615 48.0184 400.435 47.8462 395.82C48.5349 394.281 49.3956 384.024 46.2968 384.024C44.231 384.024 45.0918 383.682 44.7474 385.563V404.025L41.1322 397.358C40.2714 393.939 38.6531 389.153 39.0663 397.358C39.4795 405.564 43.0259 409.666 44.7474 410.692Z" fill="#82E124"/>
<path d="M245.616 342.118V352H247.806C247.441 347.471 246.985 338.412 248.354 338.412C249.723 338.412 250.818 327.294 249.175 327.294C247.533 327.294 248.902 333.059 247.806 333.059C246.164 333.059 248.902 324 246.711 324C244.795 324 245.667 338.823 245.616 338.823C244.74 338.823 245.069 335.529 245.069 335.529C245.069 335.529 244.85 332.235 243.973 332.235C242.878 332.235 242.878 335.118 243.152 338.412C243.371 341.047 244.886 342.118 245.616 342.118Z" fill="#82E124"/>
<path d="M115.83 83.305C115.83 83.305 37.3548 87.1877 37.0013 76.5987C36.6478 66.0097 110.174 63.8919 110.174 63.8919C110.174 63.8919 105.579 62.127 108.053 58.5974C110.528 55.0677 136.332 48.3613 149.058 48.0084C161.784 47.6554 162.844 58.5974 162.844 58.5974C174.745 60.3622 198.901 58.5974 199.961 63.8919C201.022 69.1864 180.165 75.1868 171.328 78.3635C162.491 81.5402 115.83 83.305 115.83 83.305Z" fill="#C9FFF5"/>
<path d="M115.346 83.4595C115.346 83.4595 37.3526 86.4793 37.0013 78.2434C36.65 70.0075 55.5 76.5 55.5 76.5C55.5 76.5 112.887 82.3613 115.346 79.616C117.806 76.8707 137.352 78.518 150 78.2434C162.648 77.9689 161 73 161 73C172.828 74.3726 197.907 64.2424 198.961 68.3603C200.015 72.4783 179.287 77.1453 170.504 79.616C161.721 82.0868 115.346 83.4595 115.346 83.4595Z" fill="#E7FFC9"/>
<path d="M348.004 44.4887C348.004 44.4887 329.03 52.4022 328.792 45.1715C328.553 37.9409 343.96 35.6117 343.96 35.6117C343.96 35.6117 325.438 29.4864 327.106 27.0761C328.774 24.6659 359.987 24.2444 368.566 24.0033C377.144 23.7623 390.138 36.636 390.138 36.636C398.161 37.8411 405.265 41.5562 405.98 45.1715C406.695 48.7869 388.115 52 381.037 52C373.959 52 348.004 44.4887 348.004 44.4887Z" fill="#C9FFF5"/>
<path d="M348.004 44.4887C348.004 44.4887 329.03 52.4022 328.792 45.1715C328.553 37.9409 343.96 35.6117 343.96 35.6117C333 39.2463 335.5 46.5 346.5 40.5C352.5 37.2273 376 46 380 47C384 48 405.98 45.1715 405.98 45.1715C406.695 48.7869 388.115 52 381.037 52C373.959 52 348.004 44.4887 348.004 44.4887Z" fill="#E7FFC9"/>
</g>
<defs>
<linearGradient id="paint0_linear" x1="187.5" y1="0" x2="187.5" y2="318" gradientUnits="userSpaceOnUse">
<stop stop-color="#70E5FF"/>
<stop offset="1" stop-color="#FFD600"/>
</linearGradient>
<linearGradient id="paint1_linear" x1="187.5" y1="318" x2="187.5" y2="812" gradientUnits="userSpaceOnUse">
<stop stop-color="#FFD362"/>
<stop offset="0.0001" stop-color="#FFD37D"/>
<stop offset="1" stop-color="#DC8218"/>
</linearGradient>
<clipPath id="clip0">
<rect width="375" height="812" fill="white"/>
</clipPath>
</defs>
</svg>
